<mxfile host="65bd71144e">
    <diagram id="bHMV1nUMlFEd473e1yX_" name="第 1 页">
        <mxGraphModel dx="1748" dy="519" grid="1" gridSize="10" guides="1" tooltips="1" connect="1" arrows="1" fold="1" page="1" pageScale="1" pageWidth="827" pageHeight="1169" math="0" shadow="0">
            <root>
                <mxCell id="0"/>
                <mxCell id="1" parent="0"/>
                <mxCell id="27" value="" style="rounded=0;whiteSpace=wrap;html=1;strokeColor=none;" parent="1" vertex="1">
                    <mxGeometry x="-570" y="150" width="1510" height="620" as="geometry"/>
                </mxCell>
                <mxCell id="65" value="" style="rounded=0;whiteSpace=wrap;html=1;" vertex="1" parent="1">
                    <mxGeometry x="-170" y="210" width="1050" height="510" as="geometry"/>
                </mxCell>
                <mxCell id="67" value="宿主机网络（私有网段）" style="text;html=1;strokeColor=none;fillColor=none;align=center;verticalAlign=middle;whiteSpace=wrap;rounded=0;" vertex="1" parent="1">
                    <mxGeometry x="177.5" y="210" width="162.5" height="30" as="geometry"/>
                </mxCell>
                <mxCell id="69" value="公网" style="ellipse;shape=cloud;whiteSpace=wrap;html=1;" vertex="1" parent="1">
                    <mxGeometry x="-530" y="315" width="270" height="130" as="geometry"/>
                </mxCell>
                <mxCell id="70" value="" style="rounded=0;whiteSpace=wrap;html=1;" vertex="1" parent="1">
                    <mxGeometry x="-220" y="360" width="190" height="60" as="geometry"/>
                </mxCell>
                <mxCell id="74" value="宿主机 A&lt;br&gt;10.0.0.2/8" style="rounded=0;whiteSpace=wrap;html=1;" vertex="1" parent="1">
                    <mxGeometry x="-10" y="250" width="120" height="60" as="geometry"/>
                </mxCell>
                <mxCell id="75" value="宿主机 B&lt;br&gt;10.0.0.3/8" style="rounded=0;whiteSpace=wrap;html=1;" vertex="1" parent="1">
                    <mxGeometry x="-10" y="460" width="120" height="60" as="geometry"/>
                </mxCell>
                <mxCell id="76" value="" style="sketch=0;points=[[0.015,0.015,0],[0.985,0.015,0],[0.985,0.985,0],[0.015,0.985,0],[0.25,0,0],[0.5,0,0],[0.75,0,0],[1,0.25,0],[1,0.5,0],[1,0.75,0],[0.75,1,0],[0.5,1,0],[0.25,1,0],[0,0.75,0],[0,0.5,0],[0,0.25,0]];verticalLabelPosition=bottom;html=1;verticalAlign=top;aspect=fixed;align=center;pointerEvents=1;shape=mxgraph.cisco19.rect;prIcon=l3_switch;fillColor=#FAFAFA;strokeColor=#005073;" vertex="1" parent="1">
                    <mxGeometry x="-100" y="365" width="50" height="50" as="geometry"/>
                </mxCell>
                <mxCell id="77" value="" style="sketch=0;points=[[0.015,0.015,0],[0.985,0.015,0],[0.985,0.985,0],[0.015,0.985,0],[0.25,0,0],[0.5,0,0],[0.75,0,0],[1,0.25,0],[1,0.5,0],[1,0.75,0],[0.75,1,0],[0.5,1,0],[0.25,1,0],[0,0.75,0],[0,0.5,0],[0,0.25,0]];verticalLabelPosition=bottom;html=1;verticalAlign=top;aspect=fixed;align=center;pointerEvents=1;shape=mxgraph.cisco19.rect;prIcon=l2_switch;fillColor=#FAFAFA;strokeColor=#005073;" vertex="1" parent="1">
                    <mxGeometry x="25" y="365" width="50" height="50" as="geometry"/>
                </mxCell>
                <mxCell id="82" value="NAT &amp;amp; Router&lt;br&gt;（多台物理设备）&lt;br&gt;10.0.0.1/8" style="text;html=1;strokeColor=none;fillColor=none;align=center;verticalAlign=middle;whiteSpace=wrap;rounded=0;" vertex="1" parent="1">
                    <mxGeometry x="-210" y="370" width="100" height="45" as="geometry"/>
                </mxCell>
                <mxCell id="83" value="" style="rounded=0;whiteSpace=wrap;html=1;" vertex="1" parent="1">
                    <mxGeometry x="190" y="280" width="640" height="410" as="geometry"/>
                </mxCell>
                <mxCell id="85" value="宿主机 C&lt;br&gt;" style="text;html=1;strokeColor=none;fillColor=none;align=center;verticalAlign=middle;whiteSpace=wrap;rounded=0;" vertex="1" parent="1">
                    <mxGeometry x="210" y="310" width="60" height="30" as="geometry"/>
                </mxCell>
                <mxCell id="86" value="" style="rounded=0;whiteSpace=wrap;html=1;" vertex="1" parent="1">
                    <mxGeometry x="620" y="290" width="190" height="165" as="geometry"/>
                </mxCell>
                <mxCell id="87" value="Bridge（虚拟设备）&lt;br&gt;172.16.0.1/16" style="rounded=0;whiteSpace=wrap;html=1;" vertex="1" parent="1">
                    <mxGeometry x="240" y="550" width="330" height="110" as="geometry"/>
                </mxCell>
                <mxCell id="88" value="eth0（物理网卡）&lt;br&gt;10.0.0.4/8" style="rounded=0;whiteSpace=wrap;html=1;" vertex="1" parent="1">
                    <mxGeometry x="110" y="375" width="100" height="30" as="geometry"/>
                </mxCell>
                <mxCell id="89" value="" style="rounded=0;whiteSpace=wrap;html=1;" vertex="1" parent="1">
                    <mxGeometry x="240" y="360" width="330" height="160" as="geometry"/>
                </mxCell>
                <mxCell id="91" value="" style="rounded=0;whiteSpace=wrap;html=1;" vertex="1" parent="1">
                    <mxGeometry x="250" y="392" width="300" height="110" as="geometry"/>
                </mxCell>
                <mxCell id="92" value="&lt;span&gt;MASQUERADE Rule&lt;/span&gt;" style="rounded=0;whiteSpace=wrap;html=1;" vertex="1" parent="1">
                    <mxGeometry x="270" y="406" width="220" height="30" as="geometry"/>
                </mxCell>
                <mxCell id="93" value="&amp;nbsp;Newwork Protocol Stack（Kernel）" style="text;html=1;strokeColor=none;fillColor=none;align=center;verticalAlign=middle;whiteSpace=wrap;rounded=0;" vertex="1" parent="1">
                    <mxGeometry x="294" y="360" width="240" height="30" as="geometry"/>
                </mxCell>
                <mxCell id="94" value="&lt;span&gt;DNAT Rules&lt;/span&gt;" style="rounded=0;whiteSpace=wrap;html=1;" vertex="1" parent="1">
                    <mxGeometry x="270" y="452" width="220" height="30" as="geometry"/>
                </mxCell>
                <mxCell id="95" value="iptables&lt;br&gt;&amp;nbsp;rules&lt;br&gt;（netfilter）" style="text;html=1;strokeColor=none;fillColor=none;align=center;verticalAlign=middle;whiteSpace=wrap;rounded=0;" vertex="1" parent="1">
                    <mxGeometry x="497" y="420" width="50" height="30" as="geometry"/>
                </mxCell>
                <mxCell id="98" value="veth0" style="rounded=0;whiteSpace=wrap;html=1;" vertex="1" parent="1">
                    <mxGeometry x="525" y="570" width="55" height="20" as="geometry"/>
                </mxCell>
                <mxCell id="99" value="veth1" style="rounded=0;whiteSpace=wrap;html=1;" vertex="1" parent="1">
                    <mxGeometry x="525" y="620" width="55" height="20" as="geometry"/>
                </mxCell>
                <mxCell id="100" value="eth0（172.16.0.2/16）" style="rounded=0;whiteSpace=wrap;html=1;" vertex="1" parent="1">
                    <mxGeometry x="605" y="425" width="125" height="20" as="geometry"/>
                </mxCell>
                <mxCell id="101" value="Contanier&lt;br&gt;（Namework Namespace）" style="text;html=1;strokeColor=none;fillColor=none;align=center;verticalAlign=middle;whiteSpace=wrap;rounded=0;" vertex="1" parent="1">
                    <mxGeometry x="635" y="290" width="160" height="30" as="geometry"/>
                </mxCell>
                <mxCell id="102" value="" style="rounded=0;whiteSpace=wrap;html=1;" vertex="1" parent="1">
                    <mxGeometry x="620" y="492.5" width="190" height="187.5" as="geometry"/>
                </mxCell>
                <mxCell id="104" value="Contanier&lt;br&gt;（Namework Namespace）" style="text;html=1;strokeColor=none;fillColor=none;align=center;verticalAlign=middle;whiteSpace=wrap;rounded=0;" vertex="1" parent="1">
                    <mxGeometry x="632.5" y="492.5" width="160" height="30" as="geometry"/>
                </mxCell>
                <mxCell id="107" value="eth0（172.16.0.2/16）" style="rounded=0;whiteSpace=wrap;html=1;" vertex="1" parent="1">
                    <mxGeometry x="610" y="640" width="125" height="20" as="geometry"/>
                </mxCell>
                <mxCell id="112" value="" style="curved=1;endArrow=classic;html=1;startArrow=classic;startFill=1;entryX=0.5;entryY=1;entryDx=0;entryDy=0;exitX=0;exitY=0.5;exitDx=0;exitDy=0;fillColor=#dae8fc;strokeColor=#6c8ebf;strokeWidth=3;" edge="1" parent="1" source="107" target="100">
                    <mxGeometry width="50" height="50" relative="1" as="geometry">
                        <mxPoint x="540" y="300" as="sourcePoint"/>
                        <mxPoint x="590" y="250" as="targetPoint"/>
                        <Array as="points">
                            <mxPoint x="560" y="640"/>
                            <mxPoint x="560" y="590"/>
                            <mxPoint x="590" y="550"/>
                        </Array>
                    </mxGeometry>
                </mxCell>
                <mxCell id="113" value="&lt;font color=&quot;#ff0000&quot; size=&quot;1&quot;&gt;&lt;b style=&quot;font-size: 18px&quot;&gt;2&lt;/b&gt;&lt;/font&gt;" style="edgeLabel;html=1;align=center;verticalAlign=middle;resizable=0;points=[];" vertex="1" connectable="0" parent="112">
                    <mxGeometry x="0.5043" relative="1" as="geometry">
                        <mxPoint x="-21" y="29" as="offset"/>
                    </mxGeometry>
                </mxCell>
                <mxCell id="115" value="&lt;span style=&quot;color: rgb(0 , 0 , 0) ; font-size: 12px&quot;&gt;宿主机进程&lt;/span&gt;" style="rounded=0;whiteSpace=wrap;html=1;fontSize=18;fontColor=#FF0000;" vertex="1" parent="1">
                    <mxGeometry x="279" y="300" width="270" height="40" as="geometry"/>
                </mxCell>
                <mxCell id="117" value="&lt;span style=&quot;color: rgb(0 , 0 , 0) ; font-size: 12px&quot;&gt;容器进程&lt;/span&gt;" style="rounded=0;whiteSpace=wrap;html=1;fontSize=18;fontColor=#FF0000;" vertex="1" parent="1">
                    <mxGeometry x="635" y="324" width="155" height="27.5" as="geometry"/>
                </mxCell>
                <mxCell id="121" value="&lt;font style=&quot;font-size: 12px&quot;&gt;&lt;span style=&quot;color: rgb(0 , 0 , 0)&quot;&gt;&amp;nbsp;Newwork Protocol Stack&lt;/span&gt;&lt;br style=&quot;color: rgb(0 , 0 , 0)&quot;&gt;&lt;span style=&quot;color: rgb(0 , 0 , 0)&quot;&gt;（Kernel）&lt;/span&gt;&lt;/font&gt;" style="rounded=0;whiteSpace=wrap;html=1;fontSize=18;fontColor=#FF0000;" vertex="1" parent="1">
                    <mxGeometry x="635" y="364.5" width="155" height="47.5" as="geometry"/>
                </mxCell>
                <mxCell id="119" value="" style="curved=1;endArrow=classic;html=1;startArrow=classic;startFill=1;entryX=1;entryY=0.75;entryDx=0;entryDy=0;fillColor=#d5e8d4;strokeColor=#82b366;strokeWidth=3;exitX=0.25;exitY=1;exitDx=0;exitDy=0;" edge="1" parent="1" source="117" target="115">
                    <mxGeometry width="50" height="50" relative="1" as="geometry">
                        <mxPoint x="630" y="380" as="sourcePoint"/>
                        <mxPoint x="615" y="445" as="targetPoint"/>
                        <Array as="points">
                            <mxPoint x="650" y="430"/>
                            <mxPoint x="590" y="470"/>
                            <mxPoint x="549" y="630"/>
                            <mxPoint x="570" y="400"/>
                        </Array>
                    </mxGeometry>
                </mxCell>
                <mxCell id="120" value="&lt;font color=&quot;#ff0000&quot; size=&quot;1&quot;&gt;&lt;b style=&quot;font-size: 18px&quot;&gt;3&amp;amp;4&lt;/b&gt;&lt;/font&gt;" style="edgeLabel;html=1;align=center;verticalAlign=middle;resizable=0;points=[];" vertex="1" connectable="0" parent="119">
                    <mxGeometry x="0.5043" relative="1" as="geometry">
                        <mxPoint x="-8" y="-53" as="offset"/>
                    </mxGeometry>
                </mxCell>
                <mxCell id="123" value="&lt;font color=&quot;#ff0000&quot; style=&quot;font-size: 18px&quot;&gt;&lt;b&gt;5&lt;/b&gt;&lt;/font&gt;" style="curved=1;endArrow=classic;html=1;startArrow=none;startFill=0;fillColor=#fff2cc;strokeColor=#d6b656;strokeWidth=3;endFill=1;exitX=0.5;exitY=1;exitDx=0;exitDy=0;" edge="1" parent="1" source="107" target="74">
                    <mxGeometry x="0.3216" y="-3" width="50" height="50" relative="1" as="geometry">
                        <mxPoint x="683.75" y="361.5" as="sourcePoint"/>
                        <mxPoint x="559" y="340" as="targetPoint"/>
                        <Array as="points">
                            <mxPoint x="560" y="700"/>
                            <mxPoint x="530" y="560"/>
                            <mxPoint x="530" y="520"/>
                            <mxPoint x="500" y="410"/>
                            <mxPoint x="250" y="420"/>
                            <mxPoint x="200" y="380"/>
                            <mxPoint x="130" y="380"/>
                            <mxPoint x="90" y="380"/>
                            <mxPoint x="50" y="400"/>
                        </Array>
                        <mxPoint as="offset"/>
                    </mxGeometry>
                </mxCell>
                <mxCell id="125" value="" style="curved=1;endArrow=classic;html=1;startArrow=none;startFill=0;fillColor=#ffe6cc;strokeColor=#d79b00;strokeWidth=3;endFill=1;" edge="1" parent="1" target="69">
                    <mxGeometry width="50" height="50" relative="1" as="geometry">
                        <mxPoint x="60" y="390" as="sourcePoint"/>
                        <mxPoint x="57.69230769230785" y="320" as="targetPoint"/>
                        <Array as="points">
                            <mxPoint x="-120" y="430"/>
                        </Array>
                    </mxGeometry>
                </mxCell>
                <mxCell id="129" value="&lt;font style=&quot;font-size: 12px&quot;&gt;&lt;span style=&quot;color: rgb(0 , 0 , 0)&quot;&gt;&amp;nbsp;Newwork Protocol Stack&lt;/span&gt;&lt;br style=&quot;color: rgb(0 , 0 , 0)&quot;&gt;&lt;span style=&quot;color: rgb(0 , 0 , 0)&quot;&gt;（Kernel）&lt;/span&gt;&lt;/font&gt;" style="rounded=0;whiteSpace=wrap;html=1;fontSize=18;fontColor=#FF0000;" vertex="1" parent="1">
                    <mxGeometry x="637.5" y="570" width="155" height="47.5" as="geometry"/>
                </mxCell>
                <mxCell id="130" value="&lt;span style=&quot;color: rgb(0 , 0 , 0) ; font-size: 12px&quot;&gt;容器进程（监听某端口）&lt;/span&gt;" style="rounded=0;whiteSpace=wrap;html=1;fontSize=18;fontColor=#FF0000;" vertex="1" parent="1">
                    <mxGeometry x="640" y="530" width="155" height="27.5" as="geometry"/>
                </mxCell>
                <mxCell id="127" value="&lt;font color=&quot;#ff0000&quot; style=&quot;font-size: 18px&quot;&gt;6&amp;amp;7&lt;/font&gt;" style="curved=1;endArrow=none;html=1;startArrow=classic;startFill=1;entryX=0.453;entryY=-0.058;entryDx=0;entryDy=0;fillColor=#e1d5e7;strokeColor=#9673a6;strokeWidth=3;entryPerimeter=0;exitX=1;exitY=0.75;exitDx=0;exitDy=0;endFill=0;" edge="1" parent="1" source="130" target="75">
                    <mxGeometry x="-0.8346" y="4" width="50" height="50" relative="1" as="geometry">
                        <mxPoint x="683.75" y="361.5" as="sourcePoint"/>
                        <mxPoint x="559" y="340" as="targetPoint"/>
                        <Array as="points">
                            <mxPoint x="780" y="600"/>
                            <mxPoint x="730" y="660"/>
                            <mxPoint x="610" y="690"/>
                            <mxPoint x="540" y="670"/>
                            <mxPoint x="470" y="457"/>
                            <mxPoint x="300" y="470"/>
                            <mxPoint x="210" y="400"/>
                            <mxPoint x="140" y="400"/>
                            <mxPoint x="44" y="400"/>
                        </Array>
                        <mxPoint as="offset"/>
                    </mxGeometry>
                </mxCell>
            </root>
        </mxGraphModel>
    </diagram>
</mxfile>